<svg width="51" height="52" viewBox="0 0 51 52" fill="none" xmlns="http://www.w3.org/2000/svg">
<path d="M25.0521 0.630206C24.4583 0.692706 23.9375 0.848957 23.3646 1.13021C22.9375 1.33854 22.2135 1.81771 22.0885 1.97396C22.0729 1.98437 20.6146 3.32812 18.8438 4.95312C15.6406 7.89062 13.3646 9.97916 7.22917 15.6094C5.46875 17.224 3.77083 18.776 3.45313 19.0729C2.375 20.0469 1.80208 20.7448 1.36458 21.6198C0.958334 22.4375 0.72396 23.3021 0.640626 24.2448C0.567709 25.0573 0.515626 46.349 0.583334 46.9687C0.765626 48.7031 1.72396 50.1615 3.19271 50.9792C3.66667 51.2344 4.44792 51.4948 4.98958 51.5625C5.3125 51.6042 10.7083 51.6094 25.8177 51.6042L46.2083 51.5833L46.6302 51.4792C48.4115 51.0365 49.7292 49.8594 50.3438 48.1562C50.6198 47.3802 50.6094 47.9896 50.5833 36C50.5677 29.6354 50.5417 24.7135 50.5104 24.3385C50.401 22.7969 49.901 21.5156 48.9115 20.2656C48.7656 20.0729 30.3906 3.14062 28.9167 1.83854C27.9271 0.963539 26.401 0.484373 25.0521 0.630206ZM26.6719 1.51041C27.151 1.63541 27.6875 1.88021 28.0729 2.15104C28.3698 2.36458 47.7552 20.1354 48.1198 20.5312C49.1563 21.651 49.7135 23.0625 49.7708 24.7083C49.7813 25.0729 49.8021 30.2292 49.8177 36.1719C49.849 46.0625 49.8438 47.0052 49.7708 47.349C49.4271 49.0052 48.1927 50.2865 46.5469 50.7083L46.1146 50.8177H4.89063L4.46875 50.6823C2.92708 50.2031 1.82813 49.0625 1.44271 47.5469L1.33333 47.1146L1.34375 35.9062C1.35417 28.5052 1.375 24.5312 1.40625 24.2031C1.53646 22.9427 1.98958 21.8385 2.78125 20.8333C2.95313 20.6146 3.66667 19.9115 4.48958 19.1562C6.04167 17.7344 8.34375 15.6198 11.8438 12.4115C14.224 10.224 16.1823 8.42708 20.0156 4.91146C22.6615 2.48437 22.9531 2.22916 23.4271 1.94792C23.8333 1.70833 24.5365 1.46354 25.0052 1.40104C25.4792 1.33333 26.1458 1.38021 26.6719 1.51041Z" fill="black"/>
<path d="M26.6719 1.51041C27.151 1.63541 27.6875 1.88021 28.0729 2.15104C28.3698 2.36458 47.7552 20.1354 48.1198 20.5312C49.1563 21.651 49.7135 23.0625 49.7708 24.7083C49.7813 25.0729 49.8021 30.2292 49.8177 36.1719C49.849 46.0625 49.8438 47.0052 49.7708 47.349C49.4271 49.0052 48.1927 50.2865 46.5469 50.7083L46.1146 50.8177H4.89063L4.46875 50.6823C2.92708 50.2031 1.82813 49.0625 1.44271 47.5469L1.33333 47.1146L1.34375 35.9062C1.35417 28.5052 1.375 24.5312 1.40625 24.2031C1.53646 22.9427 1.98958 21.8385 2.78125 20.8333C2.95313 20.6146 3.66667 19.9115 4.48958 19.1562C6.04167 17.7344 8.34375 15.6198 11.8438 12.4115C14.224 10.224 16.1823 8.42708 20.0156 4.91146C22.6615 2.48437 22.9531 2.22916 23.4271 1.94792C23.8333 1.70833 24.5365 1.46354 25.0052 1.40104C25.4792 1.33333 26.1458 1.38021 26.6719 1.51041Z" fill="white" fill-opacity="0.5"/>
</svg>
